<?xml version="1.0" encoding="UTF-8"?>
<!DOCTYPE svg PUBLIC "-//W3C//DTD SVG 1.1//EN" "http://www.w3.org/Graphics/SVG/1.1/DTD/svg11.dtd">
<!-- Creator: CorelDRAW -->
<svg xmlns="http://www.w3.org/2000/svg" xml:space="preserve" width="107.273mm" height="107.198mm" version="1.1" style="shape-rendering:geometricPrecision; text-rendering:geometricPrecision; image-rendering:optimizeQuality; fill-rule:evenodd; clip-rule:evenodd"
viewBox="0 0 10727 10720"
 xmlns:xlink="http://www.w3.org/1999/xlink">
 <defs>
  <style type="text/css">
   <![CDATA[
    .fil0 {fill:#FFFFC2;fill-rule:nonzero}
    .fil1 {fill:#9DA981;fill-rule:nonzero}
    .fil3 {fill:black;fill-rule:nonzero}
    .fil2 {fill:white;fill-rule:nonzero}
   ]]>
  </style>
 </defs>
 <g id="Layer_x0020_1">
  <metadata id="CorelCorpID_0Corel-Layer"/>
  <g id="vc109535.ai">
   <g>
    <polygon class="fil0" points="3490,467 2700,794 2809,1326 1718,2171 1364,2158 873,2866 1146,3193 819,4407 287,4570 260,5402 655,5606 805,6983 505,7160 778,8046 1296,7882 2073,8809 1895,9395 2631,9900 3013,9532 4267,10050 4403,10554 5194,10554 5358,10050 6734,9872 6966,10295 7743,9941 7702,9191 8806,8400 9229,8646 9719,7882 9488,7460 9924,6465 10510,6410 10523,5456 10033,5306 9733,4011 10223,3616 9787,2880 9365,2921 8547,1844 8588,1244 7947,835 7593,1244 6148,808 6134,195 5276,195 5276,658 3695,972 "/>
    <path class="fil1" d="M5261 9473c2256,0 4090,-1842 4090,-4107 0,-2266 -1834,-4108 -4090,-4108 -2256,0 -4091,1842 -4091,4108 0,2265 1835,4107 4091,4107z"/>
    <polygon class="fil2" points="3190,1803 6448,9259 5971,9436 3926,4570 2850,1994 "/>
    <polygon class="fil2" points="3886,1462 7075,9068 7429,8864 6012,5579 4335,1353 "/>
    <polygon class="fil2" points="4881,1803 3177,2308 2372,3384 2359,4366 2686,5183 3449,5688 4594,6001 6243,6437 6748,6983 6748,7160 6271,7678 5371,7951 4158,7419 3736,6942 3259,7283 4567,9423 5099,9354 5181,8877 6380,8795 7075,8387 7593,7991 8124,7146 8043,5865 7320,5061 5439,4325 3804,4148 3681,3507 4308,2853 5112,3030 6121,4025 6734,3698 5971,2348 5508,1340 5003,1490 "/>
    <polygon class="fil3" points="50,4276 0,5623 504,5687 562,6292 612,6623 670,6926 187,7178 698,8301 1202,8085 1274,8056 1462,8351 1908,8884 1649,9316 2635,10144 3031,9712 3823,9978 4211,10079 4154,10626 4593,10706 5443,10720 5522,10173 6069,10151 6623,10043 6839,10468 8114,9993 7927,9403 7826,9014 7415,9302 7603,9748 7214,9942 7092,9978 6926,9597 6148,9748 5234,9791 5148,10403 4557,10353 4543,9892 3556,9532 2995,9208 2656,9626 2340,9446 2138,9230 2433,8884 1929,8351 1375,7624 965,7826 684,7257 1123,7084 900,6156 828,5320 353,5270 403,4687 410,4327 "/>
    <polygon class="fil3" points="3866,6710 2916,7207 4449,9697 5464,9201 5450,9050 5666,9042 5630,8726 4982,8733 4989,9122 4601,9259 3420,7322 3801,7128 4219,7516 4658,7862 4967,7991 5256,8013 5140,7603 4888,7552 4420,7207 3960,6688 "/>
    <polygon class="fil3" points="4291,5975 5731,9467 6170,9467 4665,5983 4305,5939 "/>
    <polygon class="fil3" points="4888,6076 6285,9395 6609,9295 5220,5997 "/>
    <polygon class="fil3" points="5608,6148 6926,9172 7214,9057 6004,6242 "/>
    <polygon class="fil3" points="6242,6393 7343,9006 7631,8805 6659,6551 6451,6407 "/>
    <polygon class="fil3" points="6307,7509 6055,7631 5846,7682 5918,8013 6163,7948 6436,7826 "/>
    <polygon class="fil3" points="6703,8438 6494,8539 6228,8589 6307,8927 6609,8870 6854,8747 "/>
    <polygon class="fil3" points="7754,9057 8387,8575 8791,8142 9266,8467 9582,7963 9259,7682 9647,6551 9654,6393 9705,6228 10331,6256 10339,5565 9798,5565 9734,4622 9582,3845 9561,3765 9986,3520 9741,2981 9237,3168 8855,2620 8128,1864 8431,1404 8063,1130 7912,1065 7660,1469 6976,1188 6350,964 6033,907 5975,381 5457,374 5436,864 4874,907 4046,1051 3679,1159 3463,756 3067,921 2894,1000 3139,1433 2541,1800 1850,2527 1454,2304 1101,2800 1490,3053 1253,3564 1051,4111 929,4579 921,4673 281,4658 151,4291 634,4312 749,3917 929,3427 1008,3218 569,2872 936,2361 1346,1821 1756,2066 2261,1627 2678,1332 2448,792 3189,446 3722,252 3909,742 4413,634 5104,533 5133,0 5961,22 6501,22 6451,655 6890,792 7502,1029 7934,533 8625,1058 8970,1325 8668,1785 9136,2383 9388,2671 9878,2462 10324,3340 10468,3650 9978,3960 10087,4572 10137,5191 10727,5248 10698,6278 10677,6631 10000,6631 9777,7264 9690,7581 10058,7934 9633,8546 9323,8970 8819,8632 8445,9014 8020,9331 7797,9446 "/>
    <polygon class="fil3" points="3038,1764 3758,1397 4665,1173 5306,1145 6019,1195 6912,1469 7401,1728 8214,2311 8639,2829 8949,3211 9230,3787 9446,4673 9460,5263 9439,5896 9323,6537 9122,7214 8826,7725 8560,8114 8150,8575 7552,8978 7423,8740 8056,8157 8431,7775 8258,7617 8323,7523 8639,7538 8683,7401 8438,7271 8488,7142 8805,7221 8826,7128 8560,7027 8589,6948 8920,7020 8949,6890 8625,6789 8647,6638 9057,6688 9100,6494 8639,6451 8625,6314 9179,6321 9158,6192 8603,6141 8632,6033 9223,6026 9223,5875 8575,5882 8582,5745 9230,5731 9223,5616 8582,5623 8510,5500 9280,5407 9273,5220 8467,5349 8423,5212 9266,5047 9259,4917 8359,5083 8323,4982 9237,4759 9215,4615 8214,4903 8186,4809 9187,4456 9122,4305 8178,4615 8085,4464 9050,4032 8956,3859 8013,4305 7948,4154 8870,3693 8812,3592 7869,4010 7804,3873 8711,3362 8589,3125 7739,3736 7675,3628 8431,2952 8323,2815 7574,3477 7451,3383 8193,2656 8013,2505 7350,3268 7214,3175 7855,2347 7696,2189 7171,3060 7041,2945 7545,2088 7379,1994 6984,2815 6875,2779 7164,1850 6998,1814 6796,2584 6703,2527 6803,1699 6631,1663 6616,2354 6487,2304 6443,1526 6256,1476 6271,1958 6156,1879 6120,1469 5644,1425 5032,1339 4586,1411 3967,1591 3398,1800 3089,2016 "/>
    <polygon class="fil3" points="4226,1411 4392,1922 4709,1922 4536,1346 "/>
    <polygon class="fil3" points="3737,1562 3938,2066 4211,2016 3981,1447 "/>
    <polygon class="fil3" points="3103,1864 3312,2311 3535,2160 3297,1720 "/>
    <polygon class="fil3" points="5299,1281 4709,1498 4802,1800 4147,1843 3708,1951 3369,2131 2952,2448 2620,2757 2354,3139 2210,3715 2189,4060 2232,4291 2289,4665 2397,4953 2671,5335 2945,5623 3290,5839 3801,6040 4363,6163 4982,6249 5464,6314 5889,6415 5925,6120 5421,5939 4694,5817 4118,5767 3650,5587 3348,5457 3074,5234 2837,5003 2656,4629 2548,4168 2548,3780 2620,3448 2750,3139 3031,2779 3405,2462 3794,2253 4219,2167 4673,2095 5061,2073 5133,2066 5090,1706 5443,1577 6631,3636 6926,3441 5702,1238 "/>
    <polygon class="fil3" points="6659,3528 6177,3772 5810,3319 5378,2966 4924,2815 4449,2808 4096,2851 3845,2966 3614,3168 3499,3362 3470,3585 3477,3794 3520,3960 3643,4168 3801,4298 4053,4420 4456,4536 4910,4615 5544,4701 6048,4795 6458,4888 6775,4600 5875,4413 5133,4276 4399,4211 3989,4003 3852,3809 3859,3592 3960,3362 4183,3211 4406,3103 4795,3117 5126,3261 5371,3456 5687,3736 5860,4024 6033,4233 7063,3780 6875,3348 "/>
    <polygon class="fil3" points="4327,2981 4953,4456 5371,4471 4709,2988 "/>
    <polygon class="fil3" points="4967,3096 5536,4521 5990,4557 5270,3103 "/>
    <polygon class="fil3" points="3852,3290 4204,4255 4680,4348 4060,3132 "/>
    <polygon class="fil3" points="6609,4564 6969,4673 7386,4895 7754,5227 7999,5616 8150,5896 8222,6242 8250,6667 8222,7113 8150,7408 8006,7711 7768,8099 7415,8416 7207,8135 7624,7646 7848,7113 7876,6631 7848,6213 7703,5846 7523,5544 7214,5248 6904,5054 6595,4924 6379,4845 "/>
    <polygon class="fil3" points="5493,5968 5853,6047 6278,6256 6559,6422 6645,6558 6645,6839 6307,6631 6055,6472 5723,6285 "/>
    <polygon class="fil3" points="7379,8747 6904,8985 6372,9172 5939,9237 5457,9251 4709,9287 4428,9280 4032,9071 3542,8855 3247,8675 3153,8625 3233,8495 3153,8359 2973,8596 2865,8459 3096,8229 3024,8099 2692,8395 2556,8258 2930,7977 2865,7790 2455,8150 2362,8027 2851,7646 2808,7487 2253,7905 2138,7761 2800,7350 2779,7178 2030,7646 1951,7531 2873,6904 2865,6731 1886,7430 1807,7221 2901,6537 2873,6393 1685,7092 1591,6883 2772,6249 2714,6156 1548,6746 1512,6551 2635,6055 2563,5961 1462,6422 1404,6264 2426,5875 2383,5738 1353,6127 1317,5918 2297,5644 2282,5522 1325,5781 1325,5616 2232,5364 2203,5234 1281,5464 1317,5284 2124,5111 2095,4975 1325,5111 1332,4939 2066,4831 2059,4716 1353,4773 1382,4622 1994,4600 1973,4464 1433,4464 1447,4320 1936,4312 1915,4211 1469,4161 1577,3931 1915,3974 1929,3845 1649,3794 1663,3664 1958,3679 1980,3585 1771,3499 1778,3369 1965,3376 1980,3290 2246,2836 2628,2426 2981,2117 3297,1864 3175,1699 2642,2081 2203,2412 1864,2872 1605,3233 1361,3657 1202,4291 1173,4471 1109,4924 1080,5544 1116,6004 1195,6551 1325,6969 1577,7480 1893,7919 2275,8402 2620,8762 3117,9078 3492,9251 3902,9431 4478,9554 4896,9568 5479,9582 6026,9539 6573,9424 7070,9251 7415,9086 7855,8769 "/>
    <polygon class="fil3" points="2851,2050 3062,2458 2921,2683 2696,2247 "/>
   </g>
  </g>
 </g>
</svg>
